<svg width="28" height="28" viewBox="0 0 28 28" fill="none" xmlns="http://www.w3.org/2000/svg">
    <g clip-path="url(#prfeej3uha)" fill="#7210FF">
        <path d="M14 23.059a4.392 4.392 0 1 0 0-8.785 4.392 4.392 0 0 0 0 8.785zM23.059 13.176h4.392v10.98h-4.392v-10.98zm-22.51 0h4.392v10.98H.55v-10.98z" fill-opacity=".24"/>
        <path d="M25.804 9.333H23.97l-1.505-3.51a.549.549 0 0 0-.504-.333h-9.883a.55.55 0 0 0-.504.333l-1.505 3.51H7.686V7.686a.549.549 0 0 0-.549-.549H4.392a.549.549 0 0 0-.549.55v1.646H2.196C.986 9.333 0 10.32 0 11.53v14.274C0 27.014.985 28 2.196 28h23.608c1.21 0 2.196-.985 2.196-2.196V11.53a2.199 2.199 0 0 0-2.196-2.197zM12.44 6.588h9.158l1.176 2.745H11.264l1.177-2.745zm-7.5 1.647h1.647v1.098H4.941V8.235zm21.961 17.569a1.1 1.1 0 0 1-1.098 1.098H2.196a1.1 1.1 0 0 1-1.098-1.098V11.53a1.1 1.1 0 0 1 1.098-1.099h23.608a1.1 1.1 0 0 1 1.098 1.099v14.274z"/>
        <path d="M14 11.53a7.145 7.145 0 0 0-7.137 7.137c0 3.935 3.202 7.137 7.137 7.137 3.936 0 7.137-3.202 7.137-7.137A7.145 7.145 0 0 0 14 11.529zm0 13.176c-3.33 0-6.04-2.71-6.04-6.04s2.71-6.039 6.04-6.039 6.04 2.71 6.04 6.04-2.71 6.039-6.04 6.039zm3.02-20.314a.549.549 0 0 0 .549-.549V.55a.549.549 0 1 0-1.098 0v3.294c0 .303.245.55.549.55zm2.195 0a.549.549 0 0 0 .492-.303l1.098-2.196a.549.549 0 1 0-.982-.491l-1.098 2.196a.55.55 0 0 0 .49.794zm-4.883-.303a.548.548 0 1 0 .983-.491l-1.098-2.196a.549.549 0 1 0-.983.49l1.098 2.197z"/>
    </g>
    <defs>
        <clipPath id="prfeej3uha">
            <path fill="#fff" d="M0 0h28v28H0z"/>
        </clipPath>
    </defs>
</svg>
